<svg width="72" height="75" viewBox="0 0 72 75" fill="none" xmlns="http://www.w3.org/2000/svg">
<g clip-path="url(#clip0_238_290)">
<rect x="0.513855" y="0.0384521" width="70.4882" height="74.7628" rx="35.2441" fill="url(#paint0_linear_238_290)"/>
<path d="M47.3138 31.9592C64.0994 17.3742 48.2571 4.03384 31.238 11.1389C29.4174 11.899 24.3722 8.85597 19.6988 12.0619C16.6842 14.1299 17.8574 15.7506 16.6836 17.3713C15.5097 18.9921 10.9841 18.8967 9.99274 23.1051C9.40557 25.5984 11.0304 28.21 10.8131 30.0866C10.5958 31.9632 8.88 33.6548 8.79816 36.1322C8.76274 37.1786 8.922 38.2221 9.26687 39.2031C9.61173 40.1842 10.1354 41.0836 10.8081 41.85C11.4807 42.6163 12.2891 43.2346 13.1871 43.6696C14.085 44.1045 15.055 44.3476 16.0415 44.3848C16.0496 46.4534 16.8111 48.4387 18.167 49.9256C19.5228 51.4126 21.368 52.2863 23.317 52.364C24.6124 52.4121 27.8925 52.4126 30.7111 50.6092C37.774 46.0915 36.1893 41.6246 47.3138 31.9592Z" fill="white"/>
<path d="M29.884 48.385C29.884 46.1421 29.8121 35.0792 29.8156 34.8923C24.0099 35.8 24.1274 24.0871 30.0014 26.953C31.2937 27.8253 34.9356 26.953 34.5832 19.726C40.9271 26.953 48.2924 18.5238 48.924 25.3925C49.7865 34.7715 48.9188 44.5868 43.4233 44.5876C42.8221 44.5799 42.2227 44.5163 41.632 44.3977V48.385C41.632 50.8771 45.8613 52.1232 45.8613 52.1232C45.8613 52.1232 38.5559 59.425 35.523 59.3846C32.4901 59.3443 25.6547 52.1232 25.6547 52.1232C25.6547 52.1232 29.884 50.8771 29.884 48.385Z" fill="url(#paint1_linear_238_290)"/>
<path d="M41.6319 44.3965C38.7169 43.7108 35.9547 42.433 33.4978 40.6337C33.4978 40.6337 35.525 45.8902 41.6243 46.8876L41.6319 44.3965Z" fill="#DB6F3D"/>
<path d="M57.3744 59.5995C59.079 63.6172 59.9589 75.7981 59.9589 75.7981H11.557C11.557 75.7981 12.437 63.6172 14.1416 59.5995C15.635 56.0799 25.4759 52.0387 28.3598 50.8771C30.025 52.8529 32.4112 54.1169 35.758 54.1169C39.1048 54.1169 41.491 52.8529 43.1562 50.8771C46.0401 52.0387 55.881 56.0799 57.3744 59.5995Z" fill="url(#paint2_linear_238_290)"/>
<mask id="mask0_238_290" style="mask-type:alpha" maskUnits="userSpaceOnUse" x="11" y="50" width="49" height="26">
<path d="M57.3744 59.5995C59.079 63.6172 59.9589 75.7981 59.9589 75.7981H11.557C11.557 75.7981 12.437 63.6172 14.1416 59.5995C15.635 56.0799 25.4759 52.0387 28.3598 50.8771C30.025 52.8529 32.4112 54.1169 35.758 54.1169C39.1048 54.1169 41.491 52.8529 43.1562 50.8771C46.0401 52.0387 55.881 56.0799 57.3744 59.5995Z" fill="url(#paint3_linear_238_290)"/>
</mask>
<g mask="url(#mask0_238_290)">
<path d="M57.8443 73.306C57.8443 73.0102 57.927 72.7211 58.0819 72.4752C58.2368 72.2294 58.457 72.0377 58.7146 71.9245C58.9722 71.8114 59.2556 71.7817 59.5291 71.8394C59.8026 71.8971 60.0538 72.0395 60.2509 72.2487C60.4481 72.4578 60.5823 72.7242 60.6367 73.0143C60.6911 73.3043 60.6632 73.6049 60.5565 73.8782C60.4498 74.1514 60.2691 74.3849 60.0373 74.5492C59.8054 74.7135 59.5329 74.8012 59.2541 74.8012C58.8802 74.8012 58.5216 74.6437 58.2572 74.3633C57.9928 74.0829 57.8443 73.7025 57.8443 73.306V73.306ZM48.4459 73.306C48.4459 73.0102 48.5285 72.7211 48.6835 72.4752C48.8384 72.2294 49.0585 72.0377 49.3161 71.9245C49.5737 71.8114 49.8572 71.7817 50.1307 71.8394C50.4041 71.8971 50.6553 72.0395 50.8525 72.2487C51.0496 72.4578 51.1839 72.7242 51.2383 73.0143C51.2927 73.3043 51.2648 73.6049 51.1581 73.8782C51.0514 74.1514 50.8707 74.3849 50.6388 74.5492C50.407 74.7135 50.1345 74.8012 49.8556 74.8012C49.4817 74.8012 49.1232 74.6437 48.8588 74.3633C48.5944 74.0829 48.4459 73.7025 48.4459 73.306ZM39.0474 73.306C39.0474 73.0102 39.1301 72.7211 39.285 72.4752C39.4399 72.2294 39.6601 72.0377 39.9177 71.9245C40.1753 71.8114 40.4588 71.7817 40.7322 71.8394C41.0057 71.8971 41.2569 72.0395 41.4541 72.2487C41.6512 72.4578 41.7855 72.7242 41.8399 73.0143C41.8943 73.3043 41.8664 73.6049 41.7596 73.8782C41.6529 74.1514 41.4723 74.3849 41.2404 74.5492C41.0086 74.7135 40.736 74.8012 40.4572 74.8012C40.0833 74.8012 39.7247 74.6437 39.4603 74.3633C39.196 74.0829 39.0474 73.7025 39.0474 73.306ZM29.649 73.306C29.649 73.0102 29.7317 72.7211 29.8866 72.4752C30.0415 72.2294 30.2617 72.0377 30.5193 71.9245C30.7769 71.8114 31.0603 71.7817 31.3338 71.8394C31.6073 71.8971 31.8585 72.0395 32.0556 72.2487C32.2528 72.4578 32.387 72.7242 32.4414 73.0143C32.4958 73.3043 32.4679 73.6049 32.3612 73.8782C32.2545 74.1514 32.0738 74.3849 31.842 74.5492C31.6102 74.7135 31.3376 74.8012 31.0588 74.8012C30.6849 74.8012 30.3263 74.6437 30.0619 74.3633C29.7975 74.0829 29.649 73.7025 29.649 73.306ZM20.2506 73.306C20.2506 73.0102 20.3333 72.7211 20.4882 72.4752C20.6431 72.2294 20.8632 72.0377 21.1208 71.9245C21.3784 71.8114 21.6619 71.7817 21.9354 71.8394C22.2088 71.8971 22.46 72.0395 22.6572 72.2487C22.8544 72.4578 22.9886 72.7242 23.043 73.0143C23.0974 73.3043 23.0695 73.6049 22.9628 73.8782C22.8561 74.1514 22.6754 74.3849 22.4436 74.5492C22.2117 74.7135 21.9392 74.8012 21.6603 74.8012C21.2864 74.8012 20.9279 74.6437 20.6635 74.3633C20.3991 74.0829 20.2506 73.7025 20.2506 73.306ZM10.8521 73.306C10.8521 73.0102 10.9348 72.7211 11.0897 72.4752C11.2446 72.2294 11.4648 72.0377 11.7224 71.9245C11.98 71.8114 12.2635 71.7817 12.5369 71.8394C12.8104 71.8971 13.0616 72.0395 13.2588 72.2487C13.4559 72.4578 13.5902 72.7242 13.6446 73.0143C13.699 73.3043 13.6711 73.6049 13.5644 73.8782C13.4577 74.1514 13.277 74.3849 13.0451 74.5492C12.8133 74.7135 12.5407 74.8012 12.2619 74.8012C11.888 74.8012 11.5294 74.6437 11.2651 74.3633C11.0007 74.0829 10.8521 73.7025 10.8521 73.306V73.306ZM53.1451 68.3218C53.1451 68.026 53.2278 67.737 53.3827 67.4911C53.5376 67.2452 53.7577 67.0535 54.0153 66.9403C54.2729 66.8272 54.5564 66.7976 54.8299 66.8553C55.1033 66.9129 55.3545 67.0554 55.5517 67.2645C55.7489 67.4736 55.8831 67.74 55.9375 68.0301C55.9919 68.3201 55.964 68.6208 55.8573 68.894C55.7506 69.1672 55.5699 69.4007 55.3381 69.565C55.1062 69.7293 54.8337 69.817 54.5548 69.817C54.1809 69.817 53.8224 69.6595 53.558 69.3791C53.2936 69.0987 53.1451 68.7183 53.1451 68.3218ZM43.7466 68.3218C43.7466 68.026 43.8293 67.737 43.9842 67.4911C44.1391 67.2452 44.3593 67.0535 44.6169 66.9403C44.8745 66.8272 45.158 66.7976 45.4314 66.8553C45.7049 66.9129 45.9561 67.0554 46.1533 67.2645C46.3504 67.4736 46.4847 67.74 46.5391 68.0301C46.5935 68.3201 46.5656 68.6208 46.4589 68.894C46.3522 69.1672 46.1715 69.4007 45.9396 69.565C45.7078 69.7293 45.4352 69.817 45.1564 69.817C44.7825 69.817 44.4239 69.6595 44.1596 69.3791C43.8952 69.0987 43.7466 68.7183 43.7466 68.3218ZM34.3482 68.3218C34.3482 68.026 34.4309 67.737 34.5858 67.4911C34.7407 67.2452 34.9609 67.0535 35.2185 66.9403C35.4761 66.8272 35.7595 66.7976 36.033 66.8553C36.3065 66.9129 36.5577 67.0554 36.7548 67.2645C36.952 67.4736 37.0863 67.74 37.1407 68.0301C37.1951 68.3201 37.1671 68.6208 37.0604 68.894C36.9537 69.1672 36.773 69.4007 36.5412 69.565C36.3094 69.7293 36.0368 69.817 35.758 69.817C35.3841 69.817 35.0255 69.6595 34.7611 69.3791C34.4967 69.0987 34.3482 68.7183 34.3482 68.3218V68.3218ZM24.9498 68.3218C24.9498 68.026 25.0325 67.737 25.1874 67.4911C25.3423 67.2452 25.5625 67.0535 25.8201 66.9403C26.0777 66.8272 26.3611 66.7976 26.6346 66.8553C26.9081 66.9129 27.1592 67.0554 27.3564 67.2645C27.5536 67.4736 27.6878 67.74 27.7422 68.0301C27.7966 68.3201 27.7687 68.6208 27.662 68.894C27.5553 69.1672 27.3746 69.4007 27.1428 69.565C26.9109 69.7293 26.6384 69.817 26.3596 69.817C25.9857 69.817 25.6271 69.6595 25.3627 69.3791C25.0983 69.0987 24.9498 68.7183 24.9498 68.3218ZM15.5514 68.3218C15.5514 68.026 15.634 67.737 15.7889 67.4911C15.9439 67.2452 16.164 67.0535 16.4216 66.9403C16.6792 66.8272 16.9627 66.7976 17.2362 66.8553C17.5096 66.9129 17.7608 67.0554 17.958 67.2645C18.1551 67.4736 18.2894 67.74 18.3438 68.0301C18.3982 68.3201 18.3703 68.6208 18.2636 68.894C18.1569 69.1672 17.9762 69.4007 17.7443 69.565C17.5125 69.7293 17.2399 69.817 16.9611 69.817C16.5872 69.817 16.2286 69.6595 15.9643 69.3791C15.6999 69.0987 15.5514 68.7183 15.5514 68.3218ZM57.8443 63.3376C57.8443 63.0419 57.927 62.7528 58.0819 62.5069C58.2368 62.261 58.457 62.0693 58.7146 61.9562C58.9722 61.843 59.2556 61.8134 59.5291 61.8711C59.8026 61.9288 60.0538 62.0712 60.2509 62.2803C60.4481 62.4894 60.5823 62.7558 60.6367 63.0459C60.6911 63.3359 60.6632 63.6366 60.5565 63.9098C60.4498 64.183 60.2691 64.4166 60.0373 64.5809C59.8054 64.7452 59.5329 64.8328 59.2541 64.8328C58.8802 64.8328 58.5216 64.6753 58.2572 64.3949C57.9928 64.1145 57.8443 63.7342 57.8443 63.3376V63.3376ZM48.4459 63.3376C48.4459 63.0419 48.5285 62.7528 48.6835 62.5069C48.8384 62.261 49.0585 62.0693 49.3161 61.9562C49.5737 61.843 49.8572 61.8134 50.1307 61.8711C50.4041 61.9288 50.6553 62.0712 50.8525 62.2803C51.0496 62.4894 51.1839 62.7558 51.2383 63.0459C51.2927 63.3359 51.2648 63.6366 51.1581 63.9098C51.0514 64.183 50.8707 64.4166 50.6388 64.5809C50.407 64.7452 50.1345 64.8328 49.8556 64.8328C49.4817 64.8328 49.1232 64.6753 48.8588 64.3949C48.5944 64.1145 48.4459 63.7342 48.4459 63.3376ZM39.0474 63.3376C39.0474 63.0419 39.1301 62.7528 39.285 62.5069C39.4399 62.261 39.6601 62.0693 39.9177 61.9562C40.1753 61.843 40.4588 61.8134 40.7322 61.8711C41.0057 61.9288 41.2569 62.0712 41.4541 62.2803C41.6512 62.4894 41.7855 62.7558 41.8399 63.0459C41.8943 63.3359 41.8664 63.6366 41.7596 63.9098C41.6529 64.183 41.4723 64.4166 41.2404 64.5809C41.0086 64.7452 40.736 64.8328 40.4572 64.8328C40.0833 64.8328 39.7247 64.6753 39.4603 64.3949C39.196 64.1145 39.0474 63.7342 39.0474 63.3376ZM29.649 63.3376C29.649 63.0419 29.7317 62.7528 29.8866 62.5069C30.0415 62.261 30.2617 62.0693 30.5193 61.9562C30.7769 61.843 31.0603 61.8134 31.3338 61.8711C31.6073 61.9288 31.8585 62.0712 32.0556 62.2803C32.2528 62.4894 32.387 62.7558 32.4414 63.0459C32.4958 63.3359 32.4679 63.6366 32.3612 63.9098C32.2545 64.183 32.0738 64.4166 31.842 64.5809C31.6102 64.7452 31.3376 64.8328 31.0588 64.8328C30.6849 64.8328 30.3263 64.6753 30.0619 64.3949C29.7975 64.1145 29.649 63.7342 29.649 63.3376ZM20.2506 63.3376C20.2506 63.0419 20.3333 62.7528 20.4882 62.5069C20.6431 62.261 20.8632 62.0693 21.1208 61.9562C21.3784 61.843 21.6619 61.8134 21.9354 61.8711C22.2088 61.9288 22.46 62.0712 22.6572 62.2803C22.8544 62.4894 22.9886 62.7558 23.043 63.0459C23.0974 63.3359 23.0695 63.6366 22.9628 63.9098C22.8561 64.183 22.6754 64.4166 22.4436 64.5809C22.2117 64.7452 21.9392 64.8328 21.6603 64.8328C21.2864 64.8328 20.9279 64.6753 20.6635 64.3949C20.3991 64.1145 20.2506 63.7342 20.2506 63.3376ZM10.8521 63.3376C10.8521 63.0419 10.9348 62.7528 11.0897 62.5069C11.2446 62.261 11.4648 62.0693 11.7224 61.9562C11.98 61.843 12.2635 61.8134 12.5369 61.8711C12.8104 61.9288 13.0616 62.0712 13.2588 62.2803C13.4559 62.4894 13.5902 62.7558 13.6446 63.0459C13.699 63.3359 13.6711 63.6366 13.5644 63.9098C13.4577 64.183 13.277 64.4166 13.0451 64.5809C12.8133 64.7452 12.5407 64.8328 12.2619 64.8328C11.888 64.8328 11.5294 64.6753 11.2651 64.3949C11.0007 64.1145 10.8521 63.7342 10.8521 63.3376V63.3376ZM53.1451 58.3534C53.1451 58.0577 53.2278 57.7686 53.3827 57.5227C53.5376 57.2768 53.7577 57.0851 54.0153 56.972C54.2729 56.8588 54.5564 56.8292 54.8299 56.8869C55.1033 56.9446 55.3545 57.087 55.5517 57.2961C55.7489 57.5052 55.8831 57.7716 55.9375 58.0617C55.9919 58.3517 55.964 58.6524 55.8573 58.9256C55.7506 59.1988 55.5699 59.4324 55.3381 59.5967C55.1062 59.761 54.8337 59.8487 54.5548 59.8487C54.1809 59.8487 53.8224 59.6911 53.558 59.4107C53.2936 59.1303 53.1451 58.75 53.1451 58.3534ZM43.7466 58.3534C43.7466 58.0577 43.8293 57.7686 43.9842 57.5227C44.1391 57.2768 44.3593 57.0851 44.6169 56.972C44.8745 56.8588 45.158 56.8292 45.4314 56.8869C45.7049 56.9446 45.9561 57.087 46.1533 57.2961C46.3504 57.5052 46.4847 57.7716 46.5391 58.0617C46.5935 58.3517 46.5656 58.6524 46.4589 58.9256C46.3522 59.1988 46.1715 59.4324 45.9396 59.5967C45.7078 59.761 45.4352 59.8487 45.1564 59.8487C44.7825 59.8487 44.4239 59.6911 44.1596 59.4107C43.8952 59.1303 43.7466 58.75 43.7466 58.3534ZM34.3482 58.3534C34.3482 58.0577 34.4309 57.7686 34.5858 57.5227C34.7407 57.2768 34.9609 57.0851 35.2185 56.972C35.4761 56.8588 35.7595 56.8292 36.033 56.8869C36.3065 56.9446 36.5577 57.087 36.7548 57.2961C36.952 57.5052 37.0863 57.7716 37.1407 58.0617C37.1951 58.3517 37.1671 58.6524 37.0604 58.9256C36.9537 59.1988 36.773 59.4324 36.5412 59.5967C36.3094 59.761 36.0368 59.8487 35.758 59.8487C35.3841 59.8487 35.0255 59.6911 34.7611 59.4107C34.4967 59.1303 34.3482 58.75 34.3482 58.3534V58.3534ZM24.9498 58.3534C24.9498 58.0577 25.0325 57.7686 25.1874 57.5227C25.3423 57.2768 25.5625 57.0851 25.8201 56.972C26.0777 56.8588 26.3611 56.8292 26.6346 56.8869C26.9081 56.9446 27.1592 57.087 27.3564 57.2961C27.5536 57.5052 27.6878 57.7716 27.7422 58.0617C27.7966 58.3517 27.7687 58.6524 27.662 58.9256C27.5553 59.1988 27.3746 59.4324 27.1428 59.5967C26.9109 59.761 26.6384 59.8487 26.3596 59.8487C25.9857 59.8487 25.6271 59.6911 25.3627 59.4107C25.0983 59.1303 24.9498 58.75 24.9498 58.3534ZM15.5514 58.3534C15.5514 58.0577 15.634 57.7686 15.7889 57.5227C15.9439 57.2768 16.164 57.0851 16.4216 56.972C16.6792 56.8588 16.9627 56.8292 17.2362 56.8869C17.5096 56.9446 17.7608 57.087 17.958 57.2961C18.1551 57.5052 18.2894 57.7716 18.3438 58.0617C18.3982 58.3517 18.3703 58.6524 18.2636 58.9256C18.1569 59.1988 17.9762 59.4324 17.7443 59.5967C17.5125 59.761 17.2399 59.8487 16.9611 59.8487C16.5872 59.8487 16.2286 59.6911 15.9643 59.4107C15.6999 59.1303 15.5514 58.75 15.5514 58.3534ZM57.8443 53.3692C57.8443 53.0735 57.927 52.7844 58.0819 52.5385C58.2368 52.2926 58.457 52.101 58.7146 51.9878C58.9722 51.8746 59.2556 51.845 59.5291 51.9027C59.8026 51.9604 60.0538 52.1028 60.2509 52.3119C60.4481 52.521 60.5823 52.7875 60.6367 53.0775C60.6911 53.3676 60.6632 53.6682 60.5565 53.9414C60.4498 54.2147 60.2691 54.4482 60.0373 54.6125C59.8054 54.7768 59.5329 54.8645 59.2541 54.8645C58.8802 54.8645 58.5216 54.7069 58.2572 54.4265C57.9928 54.1461 57.8443 53.7658 57.8443 53.3692V53.3692ZM48.4459 53.3692C48.4459 53.0735 48.5285 52.7844 48.6835 52.5385C48.8384 52.2926 49.0585 52.101 49.3161 51.9878C49.5737 51.8746 49.8572 51.845 50.1307 51.9027C50.4041 51.9604 50.6553 52.1028 50.8525 52.3119C51.0496 52.521 51.1839 52.7875 51.2383 53.0775C51.2927 53.3676 51.2648 53.6682 51.1581 53.9414C51.0514 54.2147 50.8707 54.4482 50.6388 54.6125C50.407 54.7768 50.1345 54.8645 49.8556 54.8645C49.4817 54.8645 49.1232 54.7069 48.8588 54.4265C48.5944 54.1461 48.4459 53.7658 48.4459 53.3692V53.3692ZM20.2506 53.3692C20.2506 53.0735 20.3333 52.7844 20.4882 52.5385C20.6431 52.2926 20.8632 52.101 21.1208 51.9878C21.3784 51.8746 21.6619 51.845 21.9354 51.9027C22.2088 51.9604 22.46 52.1028 22.6572 52.3119C22.8544 52.521 22.9886 52.7875 23.043 53.0775C23.0974 53.3676 23.0695 53.6682 22.9628 53.9414C22.8561 54.2147 22.6754 54.4482 22.4436 54.6125C22.2117 54.7768 21.9392 54.8645 21.6603 54.8645C21.2864 54.8645 20.9279 54.7069 20.6635 54.4265C20.3991 54.1461 20.2506 53.7658 20.2506 53.3692V53.3692ZM10.8521 53.3692C10.8521 53.0735 10.9348 52.7844 11.0897 52.5385C11.2446 52.2926 11.4648 52.101 11.7224 51.9878C11.98 51.8746 12.2635 51.845 12.5369 51.9027C12.8104 51.9604 13.0616 52.1028 13.2588 52.3119C13.4559 52.521 13.5902 52.7875 13.6446 53.0775C13.699 53.3676 13.6711 53.6682 13.5644 53.9414C13.4577 54.2147 13.277 54.4482 13.0451 54.6125C12.8133 54.7768 12.5407 54.8645 12.2619 54.8645C11.888 54.8645 11.5294 54.7069 11.2651 54.4265C11.0007 54.1461 10.8521 53.7658 10.8521 53.3692V53.3692Z" fill="#FFA789"/>
</g>
</g>
<defs>
<linearGradient id="paint0_linear_238_290" x1="35.758" y1="0.0384521" x2="35.758" y2="74.8013" gradientUnits="userSpaceOnUse">
<stop stop-color="#1D0024"/>
<stop offset="1" stop-color="#100014"/>
</linearGradient>
<linearGradient id="paint1_linear_238_290" x1="37.3698" y1="19.726" x2="37.3698" y2="59.3848" gradientUnits="userSpaceOnUse">
<stop stop-color="#E6864E"/>
<stop offset="1" stop-color="#EB965E"/>
</linearGradient>
<linearGradient id="paint2_linear_238_290" x1="35.758" y1="50.8771" x2="35.758" y2="75.7981" gradientUnits="userSpaceOnUse">
<stop stop-color="#FECBB5"/>
<stop offset="1" stop-color="#FED4C4"/>
</linearGradient>
<linearGradient id="paint3_linear_238_290" x1="35.758" y1="50.8771" x2="35.758" y2="75.7981" gradientUnits="userSpaceOnUse">
<stop stop-color="#FECBB5"/>
<stop offset="1" stop-color="#FED4C4"/>
</linearGradient>
<clipPath id="clip0_238_290">
<rect x="0.513855" y="0.0384521" width="70.4882" height="74.7628" rx="35.2441" fill="white"/>
</clipPath>
</defs>
</svg>
